# xmcd
#
# Track frame offsets: 
#        150
#        861
#        111246
#        159181
#        166543
#        169503
#        182667
#        194239
#        203022
#        211344
#        224366
#        234362
#        245177
#        258745
#        260829
#        274354
#        308842
#        316350
#        341342
#        348637
#
# Disc length: 4776 seconds
#
# Revision: 0
# Processed by: cddbd v1.5.2PL0 Copyright (c) Steve Scherf et al.
# Submitted via: ExactAudioCopy v0.95b4
#
DISCID=2612a614
DTITLE=The Beatles  - AB  Road - Complete Purple Chick Set v1.1 Jan.10
DTITLE=Various Artist - D1  FLAC
DYEAR=1900
DGENRE=
TTITLE0=Slate Announcement
TTITLE1=Dialogue
TTITLE2=Dialogue
TTITLE3=Improvisation 10.01
TTITLE4=Improvisation 10.02
TTITLE5=The Long And Winding Road 10.03
TTITLE6=Let It Be 10.04
TTITLE7=Don't Let Me Down 10.05
TTITLE8=Maxwell's Silver Hammer 10.06
TTITLE9=I've Got A Feeling 10.07
TTITLE10=The Long And Winding Road 10.08
TTITLE11=Improvisation 10.09
TTITLE12=Get Back 10.10
TTITLE13=I've Got A Feeling 10.11
TTITLE14=I've Got A Feeling 10.12
TTITLE15=Get Back 10.13
TTITLE16=Get Back 10.14
TTITLE17=I've Got A Feeling 10.15
TTITLE18=Get Back 10.16
TTITLE19=Get Back 10.17
EXTD=
EXTT0=
EXTT1=
EXTT2=
EXTT3=
EXTT4=
EXTT5=
EXTT6=
EXTT7=
EXTT8=
EXTT9=
EXTT10=
EXTT11=
EXTT12=
EXTT13=
EXTT14=
EXTT15=
EXTT16=
EXTT17=
EXTT18=
EXTT19=
PLAYORDER=
